<svg width="371" height="36" viewBox="0 0 371 36" fill="none" xmlns="http://www.w3.org/2000/svg">
<path d="M10.776 22L9.8 19.696H4.824L3.832 22H1.128L6.264 10.032H8.344L13.496 22H10.776ZM8.936 17.68L7.32 13.856L5.704 17.68H8.936ZM18.819 13.568C19.3203 13.568 19.7897 13.6427 20.227 13.792C20.675 13.9307 21.0697 14.1387 21.411 14.416C21.763 14.6933 22.051 15.0293 22.275 15.424C22.5097 15.8187 22.6643 16.2667 22.739 16.768L20.451 16.96C20.3977 16.5333 20.2217 16.1973 19.923 15.952C19.635 15.696 19.267 15.568 18.819 15.568C18.275 15.568 17.827 15.7707 17.475 16.176C17.123 16.5707 16.947 17.136 16.947 17.872C16.947 18.608 17.123 19.1733 17.475 19.568C17.827 19.9627 18.275 20.16 18.819 20.16C19.2777 20.16 19.651 20.0427 19.939 19.808C20.227 19.5627 20.403 19.232 20.467 18.816L22.739 19.024C22.6537 19.5147 22.499 19.9573 22.275 20.352C22.051 20.736 21.763 21.0667 21.411 21.344C21.0697 21.6107 20.6803 21.8187 20.243 21.968C19.8057 22.1067 19.331 22.176 18.819 22.176C18.211 22.176 17.6457 22.08 17.123 21.888C16.611 21.6853 16.163 21.4027 15.779 21.04C15.4057 20.6667 15.1123 20.2133 14.899 19.68C14.6857 19.1467 14.579 18.544 14.579 17.872C14.579 17.1893 14.6857 16.5813 14.899 16.048C15.1123 15.5147 15.4057 15.0667 15.779 14.704C16.1523 14.3307 16.6003 14.048 17.123 13.856C17.6457 13.664 18.211 13.568 18.819 13.568ZM27.9778 13.568C29.0978 13.568 29.9511 13.8507 30.5378 14.416C31.1244 14.9707 31.4178 15.7973 31.4178 16.896V22H29.1618V21.328C28.9271 21.5733 28.6338 21.776 28.2818 21.936C27.9404 22.096 27.5298 22.176 27.0498 22.176C26.2178 22.176 25.5511 21.968 25.0498 21.552C24.5484 21.136 24.2978 20.528 24.2978 19.728C24.2978 19.2693 24.3884 18.8853 24.5698 18.576C24.7511 18.256 24.9911 18 25.2898 17.808C25.5991 17.616 25.9511 17.4773 26.3458 17.392C26.7511 17.296 27.1724 17.2373 27.6098 17.216L29.0818 17.136V16.816C29.0818 15.9627 28.7244 15.536 28.0098 15.536C27.6044 15.536 27.3111 15.648 27.1298 15.872C26.9484 16.096 26.8578 16.3467 26.8578 16.624L24.5218 16.528C24.5218 16.1653 24.6018 15.808 24.7618 15.456C24.9218 15.104 25.1511 14.7893 25.4498 14.512C25.7484 14.224 26.1111 13.9947 26.5378 13.824C26.9644 13.6533 27.4444 13.568 27.9778 13.568ZM27.8338 18.752C27.4818 18.7733 27.1938 18.848 26.9698 18.976C26.7458 19.104 26.6338 19.3173 26.6338 19.616C26.6338 19.8933 26.7244 20.0907 26.9058 20.208C27.0871 20.3147 27.3164 20.368 27.5938 20.368C28.0204 20.368 28.3724 20.256 28.6498 20.032C28.9378 19.808 29.0818 19.472 29.0818 19.024V18.672L27.8338 18.752ZM39.902 22V21.152C39.6887 21.4293 39.3687 21.6693 38.942 21.872C38.526 22.0747 38.0247 22.176 37.438 22.176C36.8513 22.176 36.3127 22.0747 35.822 21.872C35.342 21.6693 34.926 21.3813 34.574 21.008C34.222 20.624 33.9447 20.1707 33.742 19.648C33.55 19.1147 33.454 18.5227 33.454 17.872C33.454 17.2213 33.55 16.6347 33.742 16.112C33.9447 15.5787 34.222 15.1253 34.574 14.752C34.926 14.368 35.342 14.0747 35.822 13.872C36.3127 13.6693 36.8513 13.568 37.438 13.568C37.982 13.568 38.4513 13.6533 38.846 13.824C39.2513 13.9947 39.5607 14.2027 39.774 14.448V9.568H42.094V22H39.902ZM37.822 15.568C37.2353 15.568 36.7553 15.7707 36.382 16.176C36.0087 16.5707 35.822 17.136 35.822 17.872C35.822 18.608 36.0087 19.1733 36.382 19.568C36.7553 19.9627 37.2353 20.16 37.822 20.16C38.398 20.16 38.8673 19.9787 39.23 19.616C39.5927 19.2427 39.774 18.72 39.774 18.048V17.68C39.774 17.008 39.5927 16.4907 39.23 16.128C38.8673 15.7547 38.398 15.568 37.822 15.568ZM46.6996 18.608C46.721 19.12 46.881 19.5307 47.1796 19.84C47.4783 20.1387 47.8943 20.288 48.4276 20.288C48.833 20.288 49.1636 20.208 49.4196 20.048C49.6863 19.888 49.8623 19.664 49.9476 19.376L52.2996 19.488C52.225 19.8827 52.0756 20.2453 51.8516 20.576C51.6276 20.896 51.345 21.1787 51.0036 21.424C50.673 21.6587 50.289 21.8453 49.8516 21.984C49.425 22.112 48.9716 22.176 48.4916 22.176C47.8623 22.176 47.281 22.08 46.7476 21.888C46.225 21.6853 45.777 21.3973 45.4036 21.024C45.0303 20.6507 44.737 20.1973 44.5236 19.664C44.321 19.1307 44.2196 18.5333 44.2196 17.872C44.2196 17.2 44.321 16.6027 44.5236 16.08C44.737 15.5467 45.0303 15.0933 45.4036 14.72C45.777 14.3467 46.2196 14.064 46.7316 13.872C47.2436 13.6693 47.809 13.568 48.4276 13.568C49.025 13.568 49.5636 13.664 50.0436 13.856C50.5343 14.0373 50.9503 14.304 51.2916 14.656C51.6436 15.008 51.9103 15.44 52.0916 15.952C52.2836 16.464 52.3796 17.04 52.3796 17.68V18.608H46.6996ZM48.4116 15.392C47.9103 15.392 47.505 15.536 47.1956 15.824C46.897 16.112 46.7316 16.5227 46.6996 17.056H50.0276C50.0063 16.544 49.8623 16.1387 49.5956 15.84C49.3396 15.5413 48.945 15.392 48.4116 15.392ZM64.0001 13.568C64.9495 13.568 65.7068 13.8667 66.2721 14.464C66.8481 15.0507 67.1361 15.872 67.1361 16.928V22H64.8001V17.392C64.8001 16.8587 64.6828 16.4533 64.4481 16.176C64.2135 15.888 63.8721 15.744 63.4241 15.744C63.0081 15.744 62.6775 15.872 62.4321 16.128C62.1868 16.3733 62.0375 16.704 61.9841 17.12V22H59.6481V17.392C59.6481 16.8587 59.5308 16.4533 59.2961 16.176C59.0615 15.888 58.7308 15.744 58.3041 15.744C57.8348 15.744 57.4668 15.8987 57.2001 16.208C56.9441 16.5067 56.8161 16.9067 56.8161 17.408V22H54.4801V13.728H56.6881V14.576C56.8695 14.288 57.1308 14.048 57.4721 13.856C57.8241 13.664 58.2881 13.568 58.8641 13.568C59.4401 13.568 59.9468 13.68 60.3841 13.904C60.8215 14.128 61.1788 14.4533 61.4561 14.88C61.7015 14.5067 62.0268 14.1973 62.4321 13.952C62.8481 13.696 63.3708 13.568 64.0001 13.568ZM69.6851 26.08L71.7971 21.264L68.5651 13.728H71.1411L73.0451 18.656L74.9331 13.728H77.5251L72.2291 26.08H69.6851Z" fill="#666666" fill-opacity="0.85"/>
<path d="M173.552 22L171.008 14.416L168.464 22H166.368L162.192 10.032H164.88L167.44 17.808L169.984 10.032H172.016L174.576 17.808L177.12 10.032H179.808L175.632 22H173.552ZM185.354 13.568C185.983 13.568 186.565 13.6693 187.098 13.872C187.642 14.0747 188.106 14.368 188.49 14.752C188.885 15.1253 189.194 15.5787 189.418 16.112C189.642 16.6347 189.754 17.2213 189.754 17.872C189.754 18.5227 189.642 19.1147 189.418 19.648C189.194 20.1707 188.885 20.624 188.49 21.008C188.106 21.3813 187.642 21.6693 187.098 21.872C186.565 22.0747 185.983 22.176 185.354 22.176C184.725 22.176 184.138 22.0747 183.594 21.872C183.061 21.6693 182.597 21.3813 182.202 21.008C181.807 20.624 181.498 20.1707 181.274 19.648C181.061 19.1147 180.954 18.5227 180.954 17.872C180.954 17.2213 181.061 16.6347 181.274 16.112C181.498 15.5787 181.807 15.1253 182.202 14.752C182.597 14.368 183.061 14.0747 183.594 13.872C184.138 13.6693 184.725 13.568 185.354 13.568ZM185.354 15.568C184.746 15.568 184.255 15.7707 183.882 16.176C183.509 16.5707 183.322 17.136 183.322 17.872C183.322 18.5973 183.509 19.1627 183.882 19.568C184.255 19.9627 184.746 20.16 185.354 20.16C185.962 20.16 186.453 19.9627 186.826 19.568C187.199 19.1627 187.386 18.5973 187.386 17.872C187.386 17.136 187.199 16.5707 186.826 16.176C186.453 15.7707 185.962 15.568 185.354 15.568ZM196.383 15.904C195.711 15.904 195.178 16.08 194.783 16.432C194.388 16.7733 194.191 17.232 194.191 17.808V22H191.855V13.728H194.111V14.672C194.292 14.3947 194.554 14.1547 194.895 13.952C195.247 13.7493 195.743 13.648 196.383 13.648V15.904ZM203.16 13.728H205.992L202.872 17.264L206.216 22H203.384L201.224 19.008L200.488 19.808V22H198.152V9.568H200.488V16.672L203.16 13.728Z" fill="#666666" fill-opacity="0.85"/>
<path d="M330.776 22L329.8 19.696H324.824L323.832 22H321.128L326.264 10.032H328.344L333.496 22H330.776ZM328.936 17.68L327.32 13.856L325.704 17.68H328.936ZM337.363 14.448C337.576 14.2027 337.88 13.9947 338.275 13.824C338.68 13.6533 339.15 13.568 339.683 13.568C340.27 13.568 340.808 13.6693 341.299 13.872C341.79 14.0747 342.211 14.368 342.563 14.752C342.915 15.1253 343.187 15.5787 343.379 16.112C343.582 16.6347 343.683 17.2213 343.683 17.872C343.683 18.5227 343.582 19.1147 343.379 19.648C343.187 20.1707 342.915 20.624 342.563 21.008C342.211 21.3813 341.79 21.6693 341.299 21.872C340.808 22.0747 340.27 22.176 339.683 22.176C339.107 22.176 338.606 22.0747 338.179 21.872C337.763 21.6693 337.448 21.4293 337.235 21.152V22H335.027V9.568H337.363V14.448ZM339.315 15.568C338.739 15.568 338.27 15.7547 337.907 16.128C337.544 16.4907 337.363 17.008 337.363 17.68V18.048C337.363 18.72 337.544 19.2427 337.907 19.616C338.27 19.9787 338.739 20.16 339.315 20.16C339.902 20.16 340.382 19.9627 340.755 19.568C341.128 19.1733 341.315 18.608 341.315 17.872C341.315 17.136 341.128 16.5707 340.755 16.176C340.382 15.7707 339.902 15.568 339.315 15.568ZM349.745 13.568C350.374 13.568 350.955 13.6693 351.489 13.872C352.033 14.0747 352.497 14.368 352.881 14.752C353.275 15.1253 353.585 15.5787 353.809 16.112C354.033 16.6347 354.145 17.2213 354.145 17.872C354.145 18.5227 354.033 19.1147 353.809 19.648C353.585 20.1707 353.275 20.624 352.881 21.008C352.497 21.3813 352.033 21.6693 351.489 21.872C350.955 22.0747 350.374 22.176 349.745 22.176C349.115 22.176 348.529 22.0747 347.985 21.872C347.451 21.6693 346.987 21.3813 346.593 21.008C346.198 20.624 345.889 20.1707 345.665 19.648C345.451 19.1147 345.345 18.5227 345.345 17.872C345.345 17.2213 345.451 16.6347 345.665 16.112C345.889 15.5787 346.198 15.1253 346.593 14.752C346.987 14.368 347.451 14.0747 347.985 13.872C348.529 13.6693 349.115 13.568 349.745 13.568ZM349.745 15.568C349.137 15.568 348.646 15.7707 348.273 16.176C347.899 16.5707 347.713 17.136 347.713 17.872C347.713 18.5973 347.899 19.1627 348.273 19.568C348.646 19.9627 349.137 20.16 349.745 20.16C350.353 20.16 350.843 19.9627 351.217 19.568C351.59 19.1627 351.777 18.5973 351.777 17.872C351.777 17.136 351.59 16.5707 351.217 16.176C350.843 15.7707 350.353 15.568 349.745 15.568ZM361.366 22V21.168C361.206 21.424 360.955 21.6587 360.614 21.872C360.272 22.0747 359.808 22.176 359.222 22.176C358.262 22.176 357.51 21.888 356.966 21.312C356.432 20.736 356.166 19.9413 356.166 18.928V13.728H358.502V18.432C358.502 18.944 358.608 19.3333 358.822 19.6C359.035 19.8667 359.371 20 359.83 20C360.278 20 360.624 19.8507 360.87 19.552C361.115 19.2533 361.238 18.8693 361.238 18.4V13.728H363.574V22H361.366ZM368.969 18.816C368.969 19.2747 369.091 19.6 369.337 19.792C369.593 19.9733 369.886 20.064 370.217 20.064C370.387 20.064 370.526 20.0587 370.633 20.048C370.75 20.0267 370.851 20.0053 370.937 19.984V22.064C370.766 22.0853 370.585 22.1067 370.393 22.128C370.211 22.1493 369.961 22.16 369.641 22.16C369.193 22.16 368.782 22.1067 368.409 22C368.035 21.8827 367.715 21.712 367.449 21.488C367.193 21.264 366.99 20.976 366.841 20.624C366.702 20.272 366.633 19.856 366.633 19.376L366.649 15.744H365.145V13.728H366.665L366.681 10.992H369.017L369.001 13.728H370.937V15.744H368.985L368.969 18.816Z" fill="#666666" fill-opacity="0.85"/>
<path d="M107.208 10.032C107.752 10.032 108.248 10.1013 108.696 10.24C109.155 10.368 109.549 10.5707 109.88 10.848C110.211 11.1253 110.467 11.472 110.648 11.888C110.84 12.304 110.936 12.7947 110.936 13.36C110.936 13.936 110.824 14.416 110.6 14.8C110.387 15.184 110.109 15.488 109.768 15.712C110.227 15.8933 110.616 16.2187 110.936 16.688C111.267 17.1467 111.432 17.7547 111.432 18.512C111.432 19.088 111.336 19.5947 111.144 20.032C110.952 20.4587 110.685 20.8213 110.344 21.12C110.003 21.408 109.592 21.6267 109.112 21.776C108.643 21.9253 108.125 22 107.56 22H102.2V10.032H107.208ZM104.664 14.832H107.048C107.464 14.832 107.795 14.7307 108.04 14.528C108.296 14.3253 108.424 13.9947 108.424 13.536C108.424 13.0773 108.285 12.7413 108.008 12.528C107.731 12.3147 107.368 12.208 106.92 12.208H104.664V14.832ZM104.664 19.808H107.272C107.752 19.808 108.141 19.7013 108.44 19.488C108.749 19.264 108.904 18.896 108.904 18.384C108.904 17.872 108.749 17.504 108.44 17.28C108.141 17.0453 107.763 16.928 107.304 16.928H104.664V19.808ZM113.699 22V9.568H116.035V22H113.699ZM122.557 13.568C123.186 13.568 123.768 13.6693 124.301 13.872C124.845 14.0747 125.309 14.368 125.693 14.752C126.088 15.1253 126.397 15.5787 126.621 16.112C126.845 16.6347 126.957 17.2213 126.957 17.872C126.957 18.5227 126.845 19.1147 126.621 19.648C126.397 20.1707 126.088 20.624 125.693 21.008C125.309 21.3813 124.845 21.6693 124.301 21.872C123.768 22.0747 123.186 22.176 122.557 22.176C121.928 22.176 121.341 22.0747 120.797 21.872C120.264 21.6693 119.8 21.3813 119.405 21.008C119.01 20.624 118.701 20.1707 118.477 19.648C118.264 19.1147 118.157 18.5227 118.157 17.872C118.157 17.2213 118.264 16.6347 118.477 16.112C118.701 15.5787 119.01 15.1253 119.405 14.752C119.8 14.368 120.264 14.0747 120.797 13.872C121.341 13.6693 121.928 13.568 122.557 13.568ZM122.557 15.568C121.949 15.568 121.458 15.7707 121.085 16.176C120.712 16.5707 120.525 17.136 120.525 17.872C120.525 18.5973 120.712 19.1627 121.085 19.568C121.458 19.9627 121.949 20.16 122.557 20.16C123.165 20.16 123.656 19.9627 124.029 19.568C124.402 19.1627 124.589 18.5973 124.589 17.872C124.589 17.136 124.402 16.5707 124.029 16.176C123.656 15.7707 123.165 15.568 122.557 15.568ZM132.594 13.568C133.181 13.568 133.682 13.6693 134.098 13.872C134.525 14.064 134.845 14.304 135.058 14.592V13.728H137.25V22.304C137.25 22.9013 137.149 23.44 136.946 23.92C136.754 24.4107 136.477 24.8267 136.114 25.168C135.752 25.5093 135.314 25.7707 134.802 25.952C134.29 26.144 133.714 26.24 133.074 26.24C132.424 26.24 131.848 26.16 131.346 26C130.856 25.8507 130.434 25.6373 130.082 25.36C129.73 25.0827 129.448 24.7467 129.234 24.352C129.032 23.9573 128.893 23.5253 128.818 23.056L131.138 22.976C131.192 23.3813 131.378 23.696 131.698 23.92C132.029 24.144 132.461 24.256 132.994 24.256C133.57 24.256 134.034 24.1067 134.386 23.808C134.749 23.52 134.93 23.0773 134.93 22.48V21.296C134.706 21.5413 134.397 21.7493 134.002 21.92C133.608 22.0907 133.138 22.176 132.594 22.176C132.008 22.176 131.469 22.0747 130.978 21.872C130.498 21.6693 130.082 21.3813 129.73 21.008C129.378 20.624 129.101 20.1707 128.898 19.648C128.706 19.1147 128.61 18.5227 128.61 17.872C128.61 17.2213 128.706 16.6347 128.898 16.112C129.101 15.5787 129.378 15.1253 129.73 14.752C130.082 14.3787 130.498 14.0907 130.978 13.888C131.469 13.6747 132.008 13.568 132.594 13.568ZM132.978 15.568C132.392 15.568 131.912 15.7707 131.538 16.176C131.165 16.5707 130.978 17.136 130.978 17.872C130.978 18.608 131.165 19.1787 131.538 19.584C131.912 19.9787 132.392 20.176 132.978 20.176C133.554 20.176 134.024 19.9947 134.386 19.632C134.749 19.2587 134.93 18.736 134.93 18.064V17.68C134.93 17.008 134.749 16.4907 134.386 16.128C134.024 15.7547 133.554 15.568 132.978 15.568Z" fill="#666666" fill-opacity="0.85"/>
<path d="M237.864 9.856C238.589 9.856 239.272 9.96267 239.912 10.176C240.552 10.3787 241.123 10.6773 241.624 11.072C242.125 11.4667 242.541 11.9467 242.872 12.512C243.213 13.0773 243.437 13.712 243.544 14.416L240.968 14.64C240.797 13.7867 240.429 13.1413 239.864 12.704C239.309 12.2667 238.616 12.048 237.784 12.048C237.261 12.048 236.781 12.144 236.344 12.336C235.917 12.5173 235.549 12.7787 235.24 13.12C234.941 13.4613 234.707 13.8773 234.536 14.368C234.376 14.8587 234.296 15.408 234.296 16.016C234.296 16.6667 234.387 17.2373 234.568 17.728C234.749 18.2187 234.995 18.6347 235.304 18.976C235.624 19.3067 235.997 19.5573 236.424 19.728C236.851 19.8987 237.309 19.984 237.8 19.984C238.621 19.984 239.315 19.7707 239.88 19.344C240.445 18.9067 240.808 18.272 240.968 17.44L243.56 17.664C243.443 18.368 243.213 18.9973 242.872 19.552C242.541 20.1067 242.125 20.5813 241.624 20.976C241.133 21.36 240.568 21.6587 239.928 21.872C239.288 22.0747 238.605 22.176 237.88 22.176C237.005 22.176 236.195 22.0373 235.448 21.76C234.701 21.472 234.056 21.0667 233.512 20.544C232.968 20.0107 232.541 19.3653 232.232 18.608C231.933 17.84 231.784 16.976 231.784 16.016C231.784 15.0453 231.933 14.1813 232.232 13.424C232.541 12.656 232.968 12.0107 233.512 11.488C234.056 10.9547 234.696 10.5493 235.432 10.272C236.179 9.99467 236.989 9.856 237.864 9.856ZM249.573 13.568C250.202 13.568 250.783 13.6693 251.317 13.872C251.861 14.0747 252.325 14.368 252.709 14.752C253.103 15.1253 253.413 15.5787 253.637 16.112C253.861 16.6347 253.973 17.2213 253.973 17.872C253.973 18.5227 253.861 19.1147 253.637 19.648C253.413 20.1707 253.103 20.624 252.709 21.008C252.325 21.3813 251.861 21.6693 251.317 21.872C250.783 22.0747 250.202 22.176 249.573 22.176C248.943 22.176 248.357 22.0747 247.813 21.872C247.279 21.6693 246.815 21.3813 246.421 21.008C246.026 20.624 245.717 20.1707 245.493 19.648C245.279 19.1147 245.173 18.5227 245.173 17.872C245.173 17.2213 245.279 16.6347 245.493 16.112C245.717 15.5787 246.026 15.1253 246.421 14.752C246.815 14.368 247.279 14.0747 247.813 13.872C248.357 13.6693 248.943 13.568 249.573 13.568ZM249.573 15.568C248.965 15.568 248.474 15.7707 248.101 16.176C247.727 16.5707 247.541 17.136 247.541 17.872C247.541 18.5973 247.727 19.1627 248.101 19.568C248.474 19.9627 248.965 20.16 249.573 20.16C250.181 20.16 250.671 19.9627 251.045 19.568C251.418 19.1627 251.605 18.5973 251.605 17.872C251.605 17.136 251.418 16.5707 251.045 16.176C250.671 15.7707 250.181 15.568 249.573 15.568ZM260.506 13.568C260.986 13.568 261.423 13.6427 261.818 13.792C262.213 13.9413 262.549 14.16 262.826 14.448C263.114 14.736 263.338 15.0933 263.498 15.52C263.658 15.936 263.738 16.4107 263.738 16.944V22H261.402V17.392C261.402 16.8587 261.269 16.4533 261.002 16.176C260.746 15.888 260.394 15.744 259.946 15.744C259.477 15.744 259.103 15.8987 258.826 16.208C258.549 16.5067 258.41 16.9067 258.41 17.408V22H256.074V13.728H258.282V14.576C258.463 14.288 258.735 14.048 259.098 13.856C259.471 13.664 259.941 13.568 260.506 13.568ZM269.062 18.816C269.062 19.2747 269.185 19.6 269.431 19.792C269.687 19.9733 269.98 20.064 270.311 20.064C270.481 20.064 270.62 20.0587 270.727 20.048C270.844 20.0267 270.945 20.0053 271.031 19.984V22.064C270.86 22.0853 270.679 22.1067 270.487 22.128C270.305 22.1493 270.055 22.16 269.735 22.16C269.287 22.16 268.876 22.1067 268.503 22C268.129 21.8827 267.809 21.712 267.543 21.488C267.287 21.264 267.084 20.976 266.935 20.624C266.796 20.272 266.727 19.856 266.727 19.376L266.743 15.744H265.239V13.728H266.759L266.775 10.992H269.111L269.095 13.728H271.031V15.744H269.079L269.062 18.816ZM276.165 13.568C277.285 13.568 278.139 13.8507 278.725 14.416C279.312 14.9707 279.605 15.7973 279.605 16.896V22H277.349V21.328C277.115 21.5733 276.821 21.776 276.469 21.936C276.128 22.096 275.717 22.176 275.237 22.176C274.405 22.176 273.739 21.968 273.237 21.552C272.736 21.136 272.485 20.528 272.485 19.728C272.485 19.2693 272.576 18.8853 272.757 18.576C272.939 18.256 273.179 18 273.477 17.808C273.787 17.616 274.139 17.4773 274.533 17.392C274.939 17.296 275.36 17.2373 275.797 17.216L277.269 17.136V16.816C277.269 15.9627 276.912 15.536 276.197 15.536C275.792 15.536 275.499 15.648 275.317 15.872C275.136 16.096 275.045 16.3467 275.045 16.624L272.709 16.528C272.709 16.1653 272.789 15.808 272.949 15.456C273.109 15.104 273.339 14.7893 273.637 14.512C273.936 14.224 274.299 13.9947 274.725 13.824C275.152 13.6533 275.632 13.568 276.165 13.568ZM276.021 18.752C275.669 18.7733 275.381 18.848 275.157 18.976C274.933 19.104 274.821 19.3173 274.821 19.616C274.821 19.8933 274.912 20.0907 275.093 20.208C275.275 20.3147 275.504 20.368 275.781 20.368C276.208 20.368 276.56 20.256 276.837 20.032C277.125 19.808 277.269 19.472 277.269 19.024V18.672L276.021 18.752ZM285.882 13.568C286.383 13.568 286.852 13.6427 287.29 13.792C287.738 13.9307 288.132 14.1387 288.474 14.416C288.826 14.6933 289.114 15.0293 289.338 15.424C289.572 15.8187 289.727 16.2667 289.802 16.768L287.514 16.96C287.46 16.5333 287.284 16.1973 286.986 15.952C286.698 15.696 286.33 15.568 285.882 15.568C285.338 15.568 284.89 15.7707 284.538 16.176C284.186 16.5707 284.01 17.136 284.01 17.872C284.01 18.608 284.186 19.1733 284.538 19.568C284.89 19.9627 285.338 20.16 285.882 20.16C286.34 20.16 286.714 20.0427 287.002 19.808C287.29 19.5627 287.466 19.232 287.53 18.816L289.802 19.024C289.716 19.5147 289.562 19.9573 289.338 20.352C289.114 20.736 288.826 21.0667 288.474 21.344C288.132 21.6107 287.743 21.8187 287.306 21.968C286.868 22.1067 286.394 22.176 285.882 22.176C285.274 22.176 284.708 22.08 284.186 21.888C283.674 21.6853 283.226 21.4027 282.842 21.04C282.468 20.6667 282.175 20.2133 281.962 19.68C281.748 19.1467 281.642 18.544 281.642 17.872C281.642 17.1893 281.748 16.5813 281.962 16.048C282.175 15.5147 282.468 15.0667 282.842 14.704C283.215 14.3307 283.663 14.048 284.186 13.856C284.708 13.664 285.274 13.568 285.882 13.568ZM294.656 18.816C294.656 19.2747 294.779 19.6 295.024 19.792C295.28 19.9733 295.574 20.064 295.904 20.064C296.075 20.064 296.214 20.0587 296.32 20.048C296.438 20.0267 296.539 20.0053 296.624 19.984V22.064C296.454 22.0853 296.272 22.1067 296.08 22.128C295.899 22.1493 295.648 22.16 295.328 22.16C294.88 22.16 294.47 22.1067 294.096 22C293.723 21.8827 293.403 21.712 293.136 21.488C292.88 21.264 292.678 20.976 292.528 20.624C292.39 20.272 292.32 19.856 292.32 19.376L292.336 15.744H290.832V13.728H292.352L292.368 10.992H294.704L294.688 13.728H296.624V15.744H294.672L294.656 18.816Z" fill="#666666" fill-opacity="0.85"/>
</svg>
